<svg fill="#FFFFFF" xmlns="http://www.w3.org/2000/svg"  viewBox="0 0 26 26" width="52px" height="52px"><path d="M 11.8125 0 C 11.234375 0.0585938 10.707031 0.367188 10.375 0.84375 L 3.375 10.84375 C 3.132813 11.179688 3.003906 11.585938 3 12 L 3 26 L 7 26 L 7 20 L 19 20 L 19 26 L 23 26 L 23 12 C 22.996094 11.585938 22.867188 11.179688 22.625 10.84375 L 15.625 0.84375 C 15.25 0.316406 14.644531 0.00390625 14 0 L 12 0 C 11.9375 -0.00390625 11.875 -0.00390625 11.8125 0 Z M 13 4.0625 L 19 12.625 L 19 16 L 7 16 L 7 12.625 Z"/></svg>